<?xml version="1.0" encoding="UTF-8"?>
<svg width="256px" height="230px" viewBox="0 0 256 230" version="1.1" xmlns="http://www.w3.org/2000/svg" xmlns:xlink="http://www.w3.org/1999/xlink">
    <!-- Generator: Sketch 52.5 (67469) - http://www.bohemiancoding.com/sketch -->
    <title>coding</title>
    <desc>Created with Sketch.</desc>
    <g id="Page-1" stroke="none" stroke-width="1" fill="none" fill-rule="evenodd">
        <g id="coding">
            <path d="M177,230 L70,230 C70,221.163976 77.9847731,214 87.833165,214 L159.16633,214 C169.015227,213.999547 177,221.163976 177,230" id="Path" fill="#E8EDEE"></path>
            <polygon id="Path" fill="#B0B6BB" points="155 214 91 214 100.142783 177 145.857217 177"></polygon>
            <path d="M256,144 L0,144 L0,14.8237411 C0,6.63678708 6.91648649,0 15.4484698,0 L240.55153,0 C249.083514,0 256,6.63678708 256,14.8237411 L256,144 Z" id="Path" fill="#024F69"></path>
            <path d="M240.5515,182 L15.4485,182 C6.9165,182 0,174.752567 0,165.812336 L0,145 L256,145 L256,165.812336 C256,174.752567 249.0835,182 240.5515,182" id="Path" fill="#E8EDEE"></path>
            <g id="Group" transform="translate(37.000000, 16.000000)" fill="#FFFFFF">
                <path d="M182.250602,111.749333 L115.687651,111.749333 C113.233527,111.749333 111.249919,109.831758 111.249919,107.469091 C111.249919,105.106424 113.233527,103.188848 115.687651,103.188848 L182.250602,103.188848 C184.704726,103.188848 186.688333,105.106424 186.688333,107.469091 C186.687831,109.831758 184.704223,111.749333 182.250602,111.749333" id="Path"></path>
                <path d="M49.1246989,86.0688485 L4.74939785,86.0688485 C2.29527419,86.0688485 0.311666667,84.1512727 0.311666667,81.7886061 C0.311666667,79.4259394 2.29527419,77.5083636 4.74939785,77.5083636 L49.1246989,77.5083636 C51.5788226,77.5083636 53.5624301,79.4259394 53.5624301,81.7886061 C53.5624301,84.1512727 51.5788226,86.0688485 49.1246989,86.0688485" id="Path"></path>
                <path d="M160.062952,86.0688485 L93.5,86.0688485 C91.0458763,86.0688485 89.0622688,84.1512727 89.0622688,81.7886061 C89.0622688,79.4259394 91.0458763,77.5083636 93.5,77.5083636 L160.062952,77.5083636 C162.517075,77.5083636 164.500683,79.4259394 164.500683,81.7886061 C164.50018,84.1512727 162.516573,86.0688485 160.062952,86.0688485" id="Path"></path>
                <path d="M71.3123495,86.0688485 C70.7352634,86.0688485 70.1586801,85.9403636 69.6263333,85.7265455 C69.0492473,85.5127273 68.6058763,85.2130909 68.1620027,84.8276364 C67.358707,84.0145455 66.875121,82.9444848 66.875121,81.7886061 C66.875121,80.6327273 67.358707,79.5631515 68.1620027,78.7495758 C68.6058763,78.3646061 69.04975,78.0649697 69.6263333,77.8506667 C71.2193522,77.2087273 73.2205538,77.5510303 74.4631989,78.7495758 C75.2619704,79.5626667 75.7500806,80.6753939 75.7500806,81.7886061 C75.7500806,82.9013333 75.2619704,84.0140606 74.4631989,84.8276364 C73.6196882,85.5980606 72.4660188,86.0688485 71.3123495,86.0688485" id="Path"></path>
                <path d="M93.5,111.749333 L26.9370484,111.749333 C24.4829247,111.749333 22.4993172,109.831758 22.4993172,107.469091 C22.4993172,105.106424 24.4829247,103.188848 26.9370484,103.188848 L93.5,103.188848 C95.9541237,103.188848 97.9377312,105.106424 97.9377312,107.469091 C97.9377312,109.831758 95.9541237,111.749333 93.5,111.749333" id="Path"></path>
                <path d="M4.74939785,111.749333 C4.17231183,111.749333 3.59572849,111.620848 3.06338172,111.40703 C2.53103495,111.193212 2.04292473,110.893576 1.59905108,110.508121 C0.795755376,109.69503 0.312169355,108.62497 0.312169355,107.469091 C0.312169355,106.912485 0.44538172,106.356364 0.667067204,105.842909 C0.888752688,105.286303 1.19941398,104.858667 1.59905108,104.430545 C2.66424731,103.446303 4.17281452,103.018182 5.58838441,103.275152 C5.90356989,103.317818 6.16547043,103.403636 6.43591667,103.532121 C6.6978172,103.617939 6.96826344,103.745939 7.19045161,103.917091 C7.45235215,104.088242 7.67856183,104.259394 7.90024731,104.430545 C8.29938172,104.858667 8.61004301,105.286788 8.83223118,105.842909 C9.05391667,106.356364 9.18712903,106.91297 9.18712903,107.469091 C9.18712903,108.624485 8.69901882,109.694545 7.90024731,110.508121 C7.67856183,110.679273 7.45184946,110.850424 7.19045161,111.021576 C6.96876613,111.192727 6.6978172,111.321212 6.43591667,111.406545 C6.16547043,111.53503 5.90356989,111.620364 5.58838441,111.663515 C5.32648387,111.706182 5.01582258,111.749333 4.74939785,111.749333" id="Path"></path>
                <path d="M182.250602,86.0688485 C181.980156,86.0688485 181.673516,86.0261818 181.407594,85.9830303 C181.096933,85.9403636 180.830508,85.8545455 180.564586,85.7260606 C180.298161,85.6402424 180.032239,85.5122424 179.76129,85.3410909 C179.543626,85.1699394 179.321941,84.9987879 179.100255,84.8276364 C178.29696,84.0145455 177.813374,82.9018182 177.813374,81.7886061 C177.813374,80.6758788 178.29696,79.5631515 179.100255,78.7495758 L179.76129,78.2361212 C180.032239,78.0649697 180.298161,77.9364848 180.564586,77.8511515 C180.831011,77.7226667 181.096933,77.6373333 181.407594,77.5941818 C182.827688,77.2945455 184.37647,77.7653333 185.401452,78.7495758 C185.578901,78.9633939 185.756349,79.177697 185.933798,79.4341818 C186.111247,79.648 186.239935,79.9049697 186.332933,80.1619394 C186.466145,80.4189091 186.554618,80.6753939 186.594833,80.9750303 C186.643594,81.232 186.687831,81.5316364 186.687831,81.7881212 C186.687831,82.0446061 186.643594,82.3447273 186.594833,82.6443636 C186.555121,82.9013333 186.466145,83.1578182 186.332933,83.4147879 C186.239935,83.6717576 186.111247,83.9282424 185.933798,84.1852121 C185.756349,84.3990303 185.578901,84.6133333 185.401452,84.8271515 C185.179766,84.998303 184.953054,85.1694545 184.735892,85.3406061 C184.469468,85.5117576 184.199022,85.6402424 183.937121,85.7255758 C183.666675,85.8540606 183.404774,85.9393939 183.089589,85.9825455 C182.827185,86.0261818 182.516524,86.0688485 182.250602,86.0688485" id="Path"></path>
                <path d="M182.250602,34.7083636 L115.687651,34.7083636 C113.233527,34.7083636 111.249919,32.7907879 111.249919,30.4281212 C111.249919,28.0654545 113.233527,26.1478788 115.687651,26.1478788 L182.250602,26.1478788 C184.704726,26.1478788 186.688333,28.0654545 186.688333,30.4281212 C186.688333,32.7907879 184.704223,34.7083636 182.250602,34.7083636" id="Path"></path>
                <path d="M182.250602,60.3888485 L137.875301,60.3888485 C135.421177,60.3888485 133.43757,58.4712727 133.43757,56.1086061 C133.43757,53.7459394 135.421177,51.8283636 137.875301,51.8283636 L182.250602,51.8283636 C184.704726,51.8283636 186.688333,53.7459394 186.688333,56.1086061 C186.688333,58.4712727 184.704223,60.3888485 182.250602,60.3888485" id="Path"></path>
                <path d="M102.37496,60.3888485 L93.5,60.3888485 C91.0458763,60.3888485 89.0622688,58.4712727 89.0622688,56.1086061 C89.0622688,53.7459394 91.0458763,51.8283636 93.5,51.8283636 L102.37496,51.8283636 C104.829083,51.8283636 106.812691,53.7459394 106.812691,56.1086061 C106.812691,58.4712727 104.829083,60.3888485 102.37496,60.3888485" id="Path"></path>
                <path d="M160.062952,9.02836364 L93.5,9.02836364 C91.0458763,9.02836364 89.0622688,7.11078788 89.0622688,4.74812121 C89.0622688,2.38545455 91.0458763,0.467878788 93.5,0.467878788 L160.062952,0.467878788 C162.517075,0.467878788 164.500683,2.38545455 164.500683,4.74812121 C164.500683,7.11078788 162.516573,9.02836364 160.062952,9.02836364" id="Path"></path>
                <path d="M182.250602,9.02836364 C181.980156,9.02836364 181.673516,8.98569697 181.407594,8.94254545 C181.096933,8.89987879 180.830508,8.81406061 180.564586,8.68557576 C180.298161,8.59975758 180.032239,8.47175758 179.76129,8.30060606 C179.543626,8.12945455 179.321941,7.95830303 179.100255,7.78715152 C178.29696,6.97406061 177.813374,5.86133333 177.813374,4.74812121 C177.813374,3.63539394 178.29696,2.52266667 179.100255,1.70909091 L179.76129,1.19563636 C180.032239,1.02448485 180.298161,0.896 180.564586,0.810666667 C180.831011,0.682181818 181.096933,0.596848485 181.407594,0.55369697 C182.827688,0.254060606 184.37647,0.724848485 185.401452,1.70909091 C185.578901,1.92290909 185.756349,2.13721212 185.933798,2.39369697 C186.111247,2.60751515 186.239935,2.86448485 186.332933,3.12145455 C186.466145,3.37842424 186.554618,3.63490909 186.594833,3.93454545 C186.643594,4.19151515 186.687831,4.49115152 186.687831,4.74763636 C186.687831,5.00412121 186.643594,5.30424242 186.594833,5.60387879 C186.555121,5.86084848 186.466145,6.11733333 186.332933,6.37430303 C186.239935,6.63127273 186.111247,6.88775758 185.933798,7.14472727 C185.756349,7.35854545 185.578901,7.57284848 185.401452,7.78666667 C185.179766,7.95781818 184.953054,8.1289697 184.735892,8.30012121 C184.469468,8.47127273 184.199022,8.59975758 183.937121,8.68509091 C183.666675,8.81357576 183.404774,8.89890909 183.089589,8.94206061 C182.827185,8.98521212 182.516524,9.02836364 182.250602,9.02836364" id="Path"></path>
                <path d="M97.9377312,34.7083636 C96.7840618,34.7083636 95.6258683,34.2375758 94.7868817,33.4671515 C94.3877473,33.0390303 94.077086,32.5682424 93.8548978,32.0547879 C93.6327097,31.5413333 93.5,30.9847273 93.5,30.4286061 C93.5,29.872 93.6332124,29.3158788 93.8548978,28.8024242 C94.0765833,28.2889697 94.3872446,27.8181818 94.7868817,27.3900606 C95.8073387,26.4058182 97.3606452,25.977697 98.7762151,26.2346667 C99.0914005,26.2773333 99.3533011,26.3631515 99.6237473,26.4916364 C99.8856478,26.5774545 100.156094,26.7054545 100.378282,26.8766061 C100.640183,27.0477576 100.866392,27.2189091 101.043841,27.3900606 C101.487715,27.8181818 101.798376,28.2889697 102.020062,28.8024242 C102.241747,29.3158788 102.37496,29.8724848 102.37496,30.4286061 C102.37496,30.9852121 102.241747,31.5413333 102.020062,32.0547879 C101.798376,32.5682424 101.487715,33.0390303 101.043841,33.4671515 C100.866392,33.638303 100.640183,33.8094545 100.378282,33.9806061 C100.156597,34.1517576 99.8856478,34.2802424 99.6237473,34.3655758 C99.3533011,34.4940606 99.0914005,34.5793939 98.7762151,34.6225455 C98.5143145,34.665697 98.2036532,34.7083636 97.9377312,34.7083636" id="Path"></path>
                <path d="M120.125382,60.3888485 C118.922952,60.3888485 117.813519,59.9180606 116.974532,59.1476364 C116.171237,58.3345455 115.687651,57.2218182 115.687651,56.1086061 C115.687651,54.9958788 116.171237,53.8831515 116.974532,53.0695758 C118.616312,51.4860606 121.633949,51.4860606 123.275728,53.0695758 C124.0745,53.8826667 124.56261,54.9953939 124.56261,56.1086061 C124.56261,56.4082424 124.518374,56.6652121 124.469613,56.9648485 C124.429901,57.2218182 124.340925,57.478303 124.207712,57.7352727 C124.114715,57.9922424 123.986027,58.2487273 123.808578,58.505697 C123.631129,58.7195152 123.45368,58.9338182 123.276231,59.1476364 C122.43272,59.9180606 121.323288,60.3888485 120.125382,60.3888485" id="Path"></path>
            </g>
            <polygon id="Path" fill="#C9DFFF" points="43 85 107 85 107 21 43 21"></polygon>
        </g>
    </g>
</svg>