<?xml version="1.0" encoding="UTF-8"?>
<svg width="256px" height="162px" viewBox="0 0 256 162" version="1.1" xmlns="http://www.w3.org/2000/svg" xmlns:xlink="http://www.w3.org/1999/xlink">
    <!-- Generator: Sketch 52.5 (67469) - http://www.bohemiancoding.com/sketch -->
    <title>letter</title>
    <desc>Created with Sketch.</desc>
    <g id="Page-1" stroke="none" stroke-width="1" fill="none" fill-rule="evenodd">
        <g id="letter">
            <path d="M229.892578,0 L26.107422,0 C11.7109375,0 0,11.731446 0,26.1531421 L0,135.846858 C0,150.268554 11.7109375,162 26.107422,162 L229.892578,162 C244.289062,162 256,150.268554 256,135.846858 L256,26.1531421 C256,11.731446 244.289062,0 229.892578,0 Z" id="Path" fill="#024F69"></path>
            <path d="M26.107422,2.84714823e-14 C11.7109375,2.84714823e-14 0,11.731446 0,26.1531421 L0,135.846858 C0,150.268554 11.7109375,162 26.107422,162 L128,162 L128,0 L26.107422,2.84714823e-14 Z" id="Path" fill="#D0D0D0"></path>
            <path d="M67.5456192,30 L37.4543808,30 C33.3370003,30 30,33.3370003 30,37.4543808 L30,67.5456192 C30,71.6610586 33.3370003,75 37.4543808,75 L67.5456192,75 C71.6610586,75 75,71.6610586 75,67.5456192 L75,37.4543808 C75,33.3370003 71.6610586,30 67.5456192,30 Z" id="Path" fill="#787878"></path>
            <g id="Group" transform="translate(136.000000, 57.000000)" fill="#C9DFFF">
                <path d="M108.728515,7.47943411 C108.728515,3.3642904 105.371094,0.0291029801 101.228515,0.0291029801 L7.908203,0.0291029801 C3.767578,0.0291029801 0.408203,3.3642904 0.408203,7.47943411 C0.408203,11.5945778 3.767578,14.9297652 7.908203,14.9297652 L101.228515,14.9297652 C105.371094,14.9297652 108.728515,11.5945778 108.728515,7.47943411 Z" id="Path"></path>
                <path d="M101.228515,30.0166858 L39.3066405,30.0166858 C35.1640625,30.0166858 31.8066405,33.3518732 31.8066405,37.4670169 C31.8066405,41.5802205 35.1640625,44.917348 39.3066405,44.917348 L101.228515,44.917348 C105.371094,44.917348 108.728515,41.5802205 108.728515,37.4670169 C108.728515,33.3518732 105.371094,30.0166858 101.228515,30.0166858 Z" id="Path"></path>
                <path d="M101.228515,59.8180103 L39.3066405,59.8180103 C35.1640625,59.8180103 31.8066405,63.1531977 31.8066405,67.2683414 C31.8066405,71.381545 35.1640625,74.7186725 39.3066405,74.7186725 L101.228515,74.7186725 C105.371094,74.7186725 108.728515,71.381545 108.728515,67.2683414 C108.728515,63.1531977 105.371094,59.8180103 101.228515,59.8180103 Z" id="Path"></path>
            </g>
        </g>
    </g>
</svg>