<?xml version="1.0" encoding="UTF-8"?>
<svg width="1526px" height="549px" viewBox="0 0 1526 549" version="1.1" xmlns="http://www.w3.org/2000/svg" xmlns:xlink="http://www.w3.org/1999/xlink">
    <!-- Generator: Sketch 52.5 (67469) - http://www.bohemiancoding.com/sketch -->
    <title>Group</title>
    <desc>Created with Sketch.</desc>
    <defs>
        <rect id="path-1" x="0" y="0" width="1526" height="586"></rect>
        <polygon id="path-3" points="0.0680571429 0 1588 0 1588 1259 0.0680571429 1259"></polygon>
        <polygon id="path-5" points="0.0680571429 0.0648020251 1588 0.0648020251 1588 227.937579 0.0680571429 227.937579"></polygon>
        <polygon id="path-7" points="0.068 0.201840659 254.8946 0.201840659 254.8946 123.945495 0.068 123.945495"></polygon>
        <polygon id="path-9" points="0.0680571429 0.12794971 1588 0.12794971 1588 223.996439 0.0680571429 223.996439"></polygon>
        <polygon id="path-11" points="0.068 0.255494505 254.8946 0.255494505 254.8946 123.999148 0.068 123.999148"></polygon>
        <polygon id="path-13" points="0.0680571429 0.0235017812 1588 0.0235017812 1588 183 0.0680571429 183"></polygon>
        <linearGradient x1="50.7446207%" y1="-10.9630409%" x2="50.7446207%" y2="62.7659255%" id="linearGradient-15">
            <stop stop-color="#FFFFFF" stop-opacity="0.391644022" offset="0%"></stop>
            <stop stop-color="#FFFFFF" offset="100%"></stop>
        </linearGradient>
    </defs>
    <g id="Page-1" stroke="none" stroke-width="1" fill="none" fill-rule="evenodd">
        <g id="Group">
            <mask id="mask-2" fill="white">
                <use xlink:href="#path-1"></use>
            </mask>
            <g id="Rectangle"></g>
            <g id="Group-2" mask="url(#mask-2)">
                <g transform="translate(0.000000, -712.000000)">
                    <g id="grid" stroke-width="1" fill="none" transform="translate(5.000000, 0.000000)">
                        <g id="Group-20">
                            <mask id="mask-4" fill="white">
                                <use xlink:href="#path-3"></use>
                            </mask>
                            <g id="Clip-2"></g>
                            <polygon id="Fill-1" mask="url(#mask-4)" points="0.0680571429 1259 1588 1259 1588 0 0.0680571429 0"></polygon>
                        </g>
                        <path d="M1525.79012,761.351847 L1468.5,790.703694 L1411.20988,761.351847 L1411.20988,702.648153 L1468.5,673.296306 L1525.79012,702.648153 L1525.79012,761.351847 Z M1529,701.00064 L1468.5,670 L1408,701.00064 L1408,763.00064 L1468.5,794 L1529,763.00064 L1529,701.00064 Z" id="Fill-91" fill="#C9DFFF"></path>
                        <path d="M1141.22092,702.648153 L1198.50567,673.296306 L1255.77908,702.648153 L1255.77908,761.351847 L1198.50567,790.703694 L1141.22092,761.351847 L1141.22092,702.648153 M1259,763.00064 L1259,701.00064 L1198.50567,670 L1138,701.00064 L1138,763.00064 L1198.50567,794 L1259,763.00064" id="Fill-94" fill="#C9DFFF"></path>
                        <path d="M874.2154,702.648153 L931.499433,673.296306 L988.783465,702.648153 L988.783465,761.351847 L931.499433,790.703694 L874.2154,761.351847 L874.2154,702.648153 M992,763.00064 L992,701.00064 L931.499433,670 L871,701.00064 L871,763.00064 L931.499433,794 L992,763.00064" id="Fill-97" fill="#C9DFFF"></path>
                        <path d="M607.216535,702.648153 L664.499433,673.296306 L721.783465,702.648153 L721.783465,761.351847 L664.499433,790.703694 L607.216535,761.351847 L607.216535,702.648153 M725,763.00064 L725,701.00064 L664.499433,670 L604,701.00064 L604,763.00064 L664.499433,794 L725,763.00064" id="Fill-100" fill="#C9DFFF"></path>
                        <path d="M339.216535,702.648153 L396.500567,673.296306 L453.7846,702.648153 L453.7846,761.351847 L396.500567,790.703694 L339.216535,761.351847 L339.216535,702.648153 M457,763.00064 L457,701.00064 L396.500567,670 L336,701.00064 L336,763.00064 L396.500567,794 L457,763.00064" id="Fill-102" fill="#C9DFFF"></path>
                        <path d="M70.2165347,702.648153 L127.499433,673.296306 L184.783465,702.648153 L184.783465,761.351847 L127.499433,790.703694 L70.2165347,761.351847 L70.2165347,702.648153 Z M188,763.00064 L188,701.00064 L127.499433,670 L67,701.00064 L67,763.00064 L127.499433,794 L188,763.00064 Z" id="Fill-108" fill="#C9DFFF"></path>
                        <path d="M203.216535,702.648153 L260.499433,673.296306 L317.783465,702.648153 L317.783465,761.351847 L260.499433,790.703694 L203.216535,761.351847 L203.216535,702.648153 Z M200,763.00064 L260.499433,794 L321,763.00064 L321,701.00064 L260.499433,670 L200,701.00064 L200,763.00064 Z" id="Fill-109" fill="#C9DFFF"></path>
                        <path d="M472.216535,702.648153 L529.499433,673.296306 L586.783465,702.648153 L586.783465,761.351847 L529.499433,790.703694 L472.216535,761.351847 L472.216535,702.648153 M590,763.00064 L590,701.00064 L529.499433,670 L469,701.00064 L469,763.00064 L529.499433,794 L590,763.00064" id="Fill-110" fill="#C9DFFF"></path>
                        <path d="M740.216535,702.648153 L797.500567,673.296306 L854.783465,702.648153 L854.783465,761.351847 L797.500567,790.703694 L740.216535,761.351847 L740.216535,702.648153 M858,763.00064 L858,701.00064 L797.500567,670 L737,701.00064 L737,763.00064 L797.500567,794 L858,763.00064" id="Fill-111" fill="#C9DFFF"></path>
                        <path d="M1007.21653,702.648153 L1064.49943,673.296306 L1121.78347,702.648153 L1121.78347,761.351847 L1064.49943,790.703694 L1007.21653,761.351847 L1007.21653,702.648153 M1125,763.00064 L1125,701.00064 L1064.49943,670 L1004,701.00064 L1004,763.00064 L1064.49943,794 L1125,763.00064" id="Fill-112" fill="#C9DFFF"></path>
                        <g id="Group-118" transform="translate(0.000000, 670.000000)">
                            <mask id="mask-6" fill="white">
                                <use xlink:href="#path-5"></use>
                            </mask>
                            <g id="Clip-114"></g>
                            <path d="M1275.17534,32.862762 L1332.46811,3.37623344 L1389.76089,32.862762 L1389.76089,91.8358191 L1332.46811,121.322348 L1275.17534,91.8358191 L1275.17534,32.862762 Z M1392.97091,93.4921778 L1392.97091,31.2076893 L1332.46811,0.0648020251 L1271.96531,31.2076893 L1271.96531,93.4921778 L1332.46811,124.633779 L1392.97091,93.4921778 Z" id="Fill-113" fill="#C9DFFF" mask="url(#mask-6)"></path>
                            <polyline id="Fill-116" fill="#C9DFFF" mask="url(#mask-6)" points="52.2599457 31.2076893 0 4.30857821 0 7.62129562 49.0431114 32.862762 49.0431114 91.8358191 0 117.078571 0 120.390003 52.2599457 93.4921778 52.2599457 31.2076893"></polyline>
                            <path d="M1592.11746,195.139619 L1534.82469,224.626148 L1477.53191,195.139619 L1477.53191,136.166562 L1534.82469,106.680034 L1592.11746,136.166562 L1592.11746,195.139619 Z M1474.32189,134.510204 L1474.32189,196.795978 L1534.82469,227.937579 L1595.32749,196.795978 L1595.32749,134.510204 L1534.82469,103.368602 L1474.32189,134.510204 Z" id="Fill-117" fill="#C9DFFF" mask="url(#mask-6)"></path>
                        </g>
                        <path d="M1343.20988,807.648153 L1400.5,778.296306 L1457.79012,807.648153 L1457.79012,866.351847 L1400.5,895.703694 L1343.20988,866.351847 L1343.20988,807.648153 Z M1461,868.00064 L1461,805.99936 L1400.5,775 L1340,805.99936 L1340,868.00064 L1400.5,899 L1461,868.00064 Z" id="Fill-119" fill="#C9DFFF"></path>
                        <path d="M1411.20988,909.648153 L1468.5,880.296306 L1525.79012,909.648153 L1525.79012,968.351847 L1468.5,997.703694 L1411.20988,968.351847 L1411.20988,909.648153 Z M1529,970.00064 L1529,907.99936 L1468.5,877 L1408,907.99936 L1408,970.00064 L1468.5,1001 L1529,970.00064 Z" id="Fill-120" fill="#C9DFFF"></path>
                        <path d="M1209.22092,807.648153 L1266.50567,778.296306 L1323.77908,807.648153 L1323.77908,866.351847 L1266.50567,895.703694 L1209.22092,866.351847 L1209.22092,807.648153 M1327,868.00064 L1327,805.99936 L1266.50567,775 L1206,805.99936 L1206,868.00064 L1266.50567,899 L1327,868.00064" id="Fill-121" fill="#C9DFFF"></path>
                        <path d="M1075.21647,807.648153 L1132.49943,778.296306 L1189.77899,807.648153 L1189.77899,866.351847 L1132.49943,895.703694 L1075.21647,866.351847 L1075.21647,807.648153 M1193,868.00064 L1193,805.99936 L1132.49943,775 L1072,805.99936 L1072,868.00064 L1132.49943,899 L1193,868.00064" id="Fill-122" fill="#C9DFFF"></path>
                        <path d="M1141.22092,909.648153 L1198.50567,880.296306 L1255.77908,909.648153 L1255.77908,968.351847 L1198.50567,997.703694 L1141.22092,968.351847 L1141.22092,909.648153 M1259,970.00064 L1259,907.99936 L1198.50567,877 L1138,907.99936 L1138,970.00064 L1198.50567,1001 L1259,970.00064" id="Fill-123" fill="#C9DFFF"></path>
                        <path d="M941.216535,807.648153 L998.500567,778.296306 L1055.78347,807.648153 L1055.78347,866.351847 L998.500567,895.703694 L941.216535,866.351847 L941.216535,807.648153 M1059,868.00064 L1059,805.99936 L998.500567,775 L938,805.99936 L938,868.00064 L998.500567,899 L1059,868.00064" id="Fill-124" fill="#C9DFFF"></path>
                        <path d="M808.216505,807.648153 L865.5,778.296306 L922.783495,807.648153 L922.783495,866.351847 L865.5,895.703694 L808.216505,866.351847 L808.216505,807.648153 M926,868.00064 L926,805.99936 L865.5,775 L805,805.99936 L805,868.00064 L865.5,899 L926,868.00064" id="Fill-125" fill="#D2D2D2"></path>
                        <path d="M874.2154,909.648153 L931.499433,880.296306 L988.783465,909.648153 L988.783465,968.351847 L931.499433,997.703694 L874.2154,968.351847 L874.2154,909.648153 M992,970.00064 L992,907.99936 L931.499433,877 L871,907.99936 L871,970.00064 L931.499433,1001 L992,970.00064" id="Fill-126" fill="#C9DFFF"></path>
                        <path d="M673.216535,807.648153 L730.499433,778.296306 L787.783465,807.648153 L787.783465,866.351847 L730.499433,895.703694 L673.216535,866.351847 L673.216535,807.648153 M791,868.00064 L791,805.99936 L730.499433,775 L670,805.99936 L670,868.00064 L730.499433,899 L791,868.00064" id="Fill-127" fill="#C9DFFF"></path>
                        <path d="M539.216535,807.648153 L596.500567,778.296306 L653.783465,807.648153 L653.783465,866.351847 L596.500567,895.703694 L539.216535,866.351847 L539.216535,807.648153 M657,868.00064 L657,805.99936 L596.500567,775 L536,805.99936 L536,868.00064 L596.500567,899 L657,868.00064" id="Fill-128" fill="#C9DFFF"></path>
                        <path d="M607.216535,909.648153 L664.499433,880.296306 L721.783465,909.648153 L721.783465,968.351847 L664.499433,997.703694 L607.216535,968.351847 L607.216535,909.648153 M725,970.00064 L725,907.99936 L664.499433,877 L604,907.99936 L604,970.00064 L664.499433,1001 L725,970.00064" id="Fill-129" fill="#C9DFFF"></path>
                        <path d="M406.216505,807.648153 L463.5,778.296306 L520.783495,807.648153 L520.783495,866.351847 L463.5,895.703694 L406.216505,866.351847 L406.216505,807.648153 M524,868.00064 L524,805.99936 L463.5,775 L403,805.99936 L403,868.00064 L463.5,899 L524,868.00064" id="Fill-130" fill="#C9DFFF"></path>
                        <path d="M339.216535,909.648153 L396.500567,880.296306 L453.7846,909.648153 L453.7846,968.351847 L396.500567,997.703694 L339.216535,968.351847 L339.216535,909.648153 M457,970.00064 L457,907.99936 L396.500567,877 L336,907.99936 L336,970.00064 L396.500567,1001 L457,970.00064" id="Fill-131" fill="#C9DFFF"></path>
                        <path d="M271.216535,807.648153 L328.499433,778.296306 L385.783465,807.648153 L385.783465,866.351847 L328.499433,895.703694 L271.216535,866.351847 L271.216535,807.648153 M389,868.00064 L389,805.99936 L328.499433,775 L268,805.99936 L268,868.00064 L328.499433,899 L389,868.00064" id="Fill-132" fill="#C9DFFF"></path>
                        <g id="Group-136" transform="translate(0.000000, 775.000000)">
                            <mask id="mask-8" fill="white">
                                <use xlink:href="#path-7"></use>
                            </mask>
                            <g id="Clip-134"></g>
                            <path d="M137.199067,32.7825 L194.4392,3.49133242 L251.680467,32.7825 L251.680467,91.3648352 L194.4392,120.656003 L137.199067,91.3648352 L137.199067,32.7825 Z M133.984933,93.0102198 L194.4392,123.945495 L254.8946,93.0102198 L254.8946,31.1371154 L194.4392,0.201840659 L133.984933,31.1371154 L133.984933,93.0102198 Z" id="Fill-133" fill="#C9DFFF" mask="url(#mask-8)"></path>
                            <path d="M3.21413333,32.7825 L60.4554,3.49133242 L117.695533,32.7825 L117.695533,91.3648352 L60.4554,120.656003 L3.21413333,91.3648352 L3.21413333,32.7825 Z M120.909667,93.0102198 L120.909667,31.1371154 L60.4554,0.201840659 L0,31.1371154 L0,93.0102198 L60.4554,123.945495 L120.909667,93.0102198 Z" id="Fill-135" fill="#C9DFFF" mask="url(#mask-8)"></path>
                        </g>
                        <path d="M70.2165347,909.648153 L127.499433,880.296306 L184.783465,909.648153 L184.783465,968.351847 L127.499433,997.703694 L70.2165347,968.351847 L70.2165347,909.648153 Z M188,970.00064 L188,907.99936 L127.499433,877 L67,907.99936 L67,970.00064 L127.499433,1001 L188,970.00064 Z" id="Fill-137" fill="#C9DFFF"></path>
                        <path d="M203.216535,909.648153 L260.499433,880.296306 L317.783465,909.648153 L317.783465,968.351847 L260.499433,997.703694 L203.216535,968.351847 L203.216535,909.648153 Z M321,970.00064 L321,907.99936 L260.499433,877 L200,907.99936 L200,970.00064 L260.499433,1001 L321,970.00064 Z" id="Fill-138" fill="#C9DFFF"></path>
                        <path d="M472.216535,909.648153 L529.499433,880.296306 L586.783465,909.648153 L586.783465,968.351847 L529.499433,997.703694 L472.216535,968.351847 L472.216535,909.648153 M590,970.00064 L590,907.99936 L529.499433,877 L469,907.99936 L469,970.00064 L529.499433,1001 L590,970.00064" id="Fill-139" fill="#C9DFFF"></path>
                        <path d="M740.216535,909.648153 L797.500567,880.296306 L854.783465,909.648153 L854.783465,968.351847 L797.500567,997.703694 L740.216535,968.351847 L740.216535,909.648153 M858,970.00064 L858,907.99936 L797.500567,877 L737,907.99936 L737,970.00064 L797.500567,1001 L858,970.00064" id="Fill-140" fill="#C9DFFF"></path>
                        <path d="M1007.21653,909.648153 L1064.49943,880.296306 L1121.78347,909.648153 L1121.78347,968.351847 L1064.49943,997.703694 L1007.21653,968.351847 L1007.21653,909.648153 M1125,970.00064 L1125,907.99936 L1064.49943,877 L1004,907.99936 L1004,970.00064 L1064.49943,1001 L1125,970.00064" id="Fill-141" fill="#C9DFFF"></path>
                        <g id="Group-147" transform="translate(0.000000, 877.000000)">
                            <mask id="mask-10" fill="white">
                                <use xlink:href="#path-9"></use>
                            </mask>
                            <g id="Clip-143"></g>
                            <path d="M1275.17534,32.7602437 L1332.46811,3.42265474 L1389.76089,32.7602437 L1389.76089,91.4354217 L1332.46811,120.773011 L1275.17534,91.4354217 L1275.17534,32.7602437 Z M1392.97091,93.0834139 L1392.97091,31.1122515 L1332.46811,0.12794971 L1271.96531,31.1122515 L1271.96531,93.0834139 L1332.46811,124.067716 L1392.97091,93.0834139 Z" id="Fill-142" fill="#C9DFFF" mask="url(#mask-10)"></path>
                            <polyline id="Fill-145" fill="#C9DFFF" mask="url(#mask-10)" points="52.2599457 31.1122515 0 4.35029014 0 7.64499516 49.0431114 32.7602437 49.0431114 91.4354217 0 116.55067 0 119.845375 52.2599457 93.0834139 52.2599457 31.1122515"></polyline>
                            <path d="M1592.11746,191.364145 L1534.82469,220.701734 L1477.53191,191.364145 L1477.53191,132.688967 L1534.82469,103.351378 L1592.11746,132.688967 L1592.11746,191.364145 Z M1474.32189,131.040975 L1474.32189,193.010858 L1534.82469,223.996439 L1595.32749,193.010858 L1595.32749,131.040975 L1534.82469,100.056673 L1474.32189,131.040975 Z" id="Fill-146" fill="#C9DFFF" mask="url(#mask-10)"></path>
                        </g>
                        <path d="M1343.20988,1009.64815 L1400.5,980.296306 L1457.79012,1009.64815 L1457.79012,1068.35185 L1400.5,1097.70369 L1343.20988,1068.35185 L1343.20988,1009.64815 Z M1461,1069.99936 L1461,1007.99936 L1400.5,977 L1340,1007.99936 L1340,1069.99936 L1400.5,1101 L1461,1069.99936 Z" id="Fill-148" fill="#C9DFFF"></path>
                        <path d="M1525.79012,1167.35185 L1468.5,1196.70369 L1411.20988,1167.35185 L1411.20988,1108.64815 L1468.5,1079.29631 L1525.79012,1108.64815 L1525.79012,1167.35185 Z M1529,1106.99936 L1468.5,1076 L1408,1106.99936 L1408,1168.99936 L1468.5,1200 L1529,1168.99936 L1529,1106.99936 Z" id="Fill-149" fill="#C9DFFF"></path>
                        <path d="M1209.22092,1009.64815 L1266.50567,980.296306 L1323.77908,1009.64815 L1323.77908,1068.35185 L1266.50567,1097.70369 L1209.22092,1068.35185 L1209.22092,1009.64815 Z M1327,1069.99936 L1327,1007.99936 L1266.50567,977 L1206,1007.99936 L1206,1069.99936 L1266.50567,1101 L1327,1069.99936 Z" id="Fill-150" fill="#C9DFFF"></path>
                        <path d="M1075.21647,1009.64815 L1132.49943,980.296306 L1189.77899,1009.64815 L1189.77899,1068.35185 L1132.49943,1097.70369 L1075.21647,1068.35185 L1075.21647,1009.64815 Z M1193,1069.99936 L1193,1007.99936 L1132.49943,977 L1072,1007.99936 L1072,1069.99936 L1132.49943,1101 L1193,1069.99936 Z" id="Fill-151" fill="#C9DFFF"></path>
                        <path d="M1255.77908,1167.35185 L1198.50567,1196.70369 L1141.22092,1167.35185 L1141.22092,1108.64815 L1198.50567,1079.29631 L1255.77908,1108.64815 L1255.77908,1167.35185 Z M1259,1106.99936 L1198.50567,1076 L1138,1106.99936 L1138,1168.99936 L1198.50567,1200 L1259,1168.99936 L1259,1106.99936 Z" id="Fill-152" fill="#C9DFFF"></path>
                        <path d="M941.216535,1009.64815 L998.500567,980.296306 L1055.78347,1009.64815 L1055.78347,1068.35185 L998.500567,1097.70369 L941.216535,1068.35185 L941.216535,1009.64815 Z M1059,1069.99936 L1059,1007.99936 L998.500567,977 L938,1007.99936 L938,1069.99936 L998.500567,1101 L1059,1069.99936 Z" id="Fill-153" fill="#C9DFFF"></path>
                        <path d="M808.216505,1009.64815 L865.5,980.296306 L922.783495,1009.64815 L922.783495,1068.35185 L865.5,1097.70369 L808.216505,1068.35185 L808.216505,1009.64815 Z M926,1069.99936 L926,1007.99936 L865.5,977 L805,1007.99936 L805,1069.99936 L865.5,1101 L926,1069.99936 Z" id="Fill-154" fill="#C9DFFF"></path>
                        <path d="M988.783495,1167.35185 L931.5,1196.70369 L874.216505,1167.35185 L874.216505,1108.64815 L931.5,1079.29631 L988.783495,1108.64815 L988.783495,1167.35185 Z M992,1106.99936 L931.5,1076 L871,1106.99936 L871,1168.99936 L931.5,1200 L992,1168.99936 L992,1106.99936 Z" id="Fill-155" fill="#C9DFFF"></path>
                        <path d="M673.216535,1009.64815 L730.499433,980.296306 L787.783465,1009.64815 L787.783465,1068.35185 L730.499433,1097.70369 L673.216535,1068.35185 L673.216535,1009.64815 Z M791,1069.99936 L791,1007.99936 L730.499433,977 L670,1007.99936 L670,1069.99936 L730.499433,1101 L791,1069.99936 Z" id="Fill-156" fill="#C9DFFF"></path>
                        <path d="M539.216535,1009.64815 L596.500567,980.296306 L653.783465,1009.64815 L653.783465,1068.35185 L596.500567,1097.70369 L539.216535,1068.35185 L539.216535,1009.64815 Z M657,1069.99936 L657,1007.99936 L596.500567,977 L536,1007.99936 L536,1069.99936 L596.500567,1101 L657,1069.99936 Z" id="Fill-157" fill="#C9DFFF"></path>
                        <path d="M721.783465,1167.35185 L664.499433,1196.70369 L607.216535,1167.35185 L607.216535,1108.64815 L664.499433,1079.29631 L721.783465,1108.64815 L721.783465,1167.35185 Z M725,1106.99936 L664.499433,1076 L604,1106.99936 L604,1168.99936 L664.499433,1200 L725,1168.99936 L725,1106.99936 Z" id="Fill-158" fill="#C9DFFF"></path>
                        <path d="M406.216505,1009.64815 L463.5,980.296306 L520.783495,1009.64815 L520.783495,1068.35185 L463.5,1097.70369 L406.216505,1068.35185 L406.216505,1009.64815 Z M524,1069.99936 L524,1007.99936 L463.5,977 L403,1007.99936 L403,1069.99936 L463.5,1101 L524,1069.99936 Z" id="Fill-159" fill="#C9DFFF"></path>
                        <path d="M453.783495,1167.35185 L396.5,1196.70369 L339.216505,1167.35185 L339.216505,1108.64815 L396.5,1079.29631 L453.783495,1108.64815 L453.783495,1167.35185 Z M457,1106.99936 L396.5,1076 L336,1106.99936 L336,1168.99936 L396.5,1200 L457,1168.99936 L457,1106.99936 Z" id="Fill-160" fill="#C9DFFF"></path>
                        <path d="M271.216535,1009.64815 L328.499433,980.296306 L385.783465,1009.64815 L385.783465,1068.35185 L328.499433,1097.70369 L271.216535,1068.35185 L271.216535,1009.64815 Z M389,1069.99936 L389,1007.99936 L328.499433,977 L268,1007.99936 L268,1069.99936 L328.499433,1101 L389,1069.99936 Z" id="Fill-161" fill="#C9DFFF"></path>
                        <g id="Group-165" transform="translate(0.000000, 977.000000)">
                            <mask id="mask-12" fill="white">
                                <use xlink:href="#path-11"></use>
                            </mask>
                            <g id="Clip-163"></g>
                            <path d="M137.199067,32.8361538 L194.4392,3.54498626 L251.680467,32.8361538 L251.680467,91.418489 L194.4392,120.709657 L137.199067,91.418489 L137.199067,32.8361538 Z M133.984933,93.0625962 L194.4392,123.999148 L254.8946,93.0625962 L254.8946,31.1907692 L194.4392,0.255494505 L133.984933,31.1907692 L133.984933,93.0625962 Z" id="Fill-162" fill="#C9DFFF" mask="url(#mask-12)"></path>
                            <path d="M3.21413333,32.8361538 L60.4554,3.54498626 L117.695533,32.8361538 L117.695533,91.418489 L60.4554,120.709657 L3.21413333,91.418489 L3.21413333,32.8361538 Z M120.909667,93.0625962 L120.909667,31.1907692 L60.4554,0.255494505 L0,31.1907692 L0,93.0625962 L60.4554,123.999148 L120.909667,93.0625962 Z" id="Fill-164" fill="#C9DFFF" mask="url(#mask-12)"></path>
                        </g>
                        <path d="M184.783465,1167.35185 L127.499433,1196.70369 L70.2165347,1167.35185 L70.2165347,1108.64815 L127.499433,1079.29631 L184.783465,1108.64815 L184.783465,1167.35185 Z M188,1106.99936 L127.499433,1076 L67,1106.99936 L67,1168.99936 L127.499433,1200 L188,1168.99936 L188,1106.99936 Z" id="Fill-166" fill="#C9DFFF"></path>
                        <path d="M317.783465,1167.35185 L260.499433,1196.70369 L203.216535,1167.35185 L203.216535,1108.64815 L260.499433,1079.29631 L317.783465,1108.64815 L317.783465,1167.35185 Z M321,1106.99936 L260.499433,1076 L200,1106.99936 L200,1168.99936 L260.499433,1200 L321,1168.99936 L321,1106.99936 Z" id="Fill-167" fill="#C9DFFF"></path>
                        <path d="M586.783465,1167.35185 L529.499433,1196.70369 L472.216535,1167.35185 L472.216535,1108.64815 L529.499433,1079.29631 L586.783465,1108.64815 L586.783465,1167.35185 Z M590,1106.99936 L529.499433,1076 L469,1106.99936 L469,1168.99936 L529.499433,1200 L590,1168.99936 L590,1106.99936 Z" id="Fill-168" fill="#C9DFFF"></path>
                        <path d="M854.783465,1167.35185 L797.500567,1196.70369 L740.216535,1167.35185 L740.216535,1108.64815 L797.500567,1079.29631 L854.783465,1108.64815 L854.783465,1167.35185 Z M858,1106.99936 L797.500567,1076 L737,1106.99936 L737,1168.99936 L797.500567,1200 L858,1168.99936 L858,1106.99936 Z" id="Fill-169" fill="#C9DFFF"></path>
                        <path d="M1121.78347,1167.35185 L1064.49943,1196.70369 L1007.21653,1167.35185 L1007.21653,1108.64815 L1064.49943,1079.29631 L1121.78347,1108.64815 L1121.78347,1167.35185 Z M1125,1106.99936 L1064.49943,1076 L1004,1106.99936 L1004,1168.99936 L1064.49943,1200 L1125,1168.99936 L1125,1106.99936 Z" id="Fill-170" fill="#C9DFFF"></path>
                        <g id="Group-187" transform="translate(0.000000, 1076.000000)">
                            <mask id="mask-14" fill="white">
                                <use xlink:href="#path-13"></use>
                            </mask>
                            <g id="Clip-172"></g>
                            <path d="M1389.76089,91.9212614 L1332.46811,121.448513 L1275.17534,91.9212614 L1275.17534,32.8667581 L1332.46811,3.33950653 L1389.76089,32.8667581 L1389.76089,91.9212614 Z M1392.97091,31.2081119 L1332.46811,0.0235017812 L1271.96531,31.2081119 L1271.96531,93.5786199 L1332.46811,124.764518 L1392.97091,93.5786199 L1392.97091,31.2081119 Z" id="Fill-171" fill="#D2D2D2" mask="url(#mask-14)"></path>
                            <polygon id="Fill-174" fill="#C9DFFF" mask="url(#mask-14)" points="0 4.27313894 0 7.58914369 49.0431114 32.8667581 49.0431114 91.9212614 0 117.198876 0 120.514881 52.2599457 93.5786199 52.2599457 31.2081119"></polygon>
                            <path d="M1592.11746,192.496007 L1534.82469,222.019396 L1477.53191,192.496007 L1477.53191,133.441504 L1534.82469,103.912965 L1592.11746,133.441504 L1592.11746,192.496007 Z M1474.32189,131.782858 L1474.32189,194.153366 L1534.82469,225.341839 L1595.32749,194.153366 L1595.32749,131.782858 L1534.82469,100.59696 L1474.32189,131.782858 Z" id="Fill-175" fill="#C9DFFF" mask="url(#mask-14)"></path>
                            <path d="M1458.0222,192.496007 L1400.72943,222.019396 L1343.43666,192.496007 L1343.43666,133.441504 L1400.72943,103.912965 L1458.0222,133.441504 L1458.0222,192.496007 Z M1340.22663,131.782858 L1340.22663,194.153366 L1400.72943,225.341839 L1461.23223,194.153366 L1461.23223,131.782858 L1400.72943,100.59696 L1340.22663,131.782858 Z" id="Fill-176" fill="#C9DFFF" mask="url(#mask-14)"></path>
                            <path d="M1323.9156,192.496007 L1266.63417,222.019396 L1209.3414,192.496007 L1209.3414,133.441504 L1266.63417,103.912965 L1323.9156,133.441504 L1323.9156,192.496007 Z M1206.12003,131.782858 L1206.12003,194.153366 L1266.63417,225.341839 L1327.13697,194.153366 L1327.13697,131.782858 L1266.63417,100.59696 L1206.12003,131.782858 Z" id="Fill-177" fill="#C9DFFF" mask="url(#mask-14)"></path>
                            <path d="M1189.82034,192.496007 L1132.53438,222.019396 L1075.24501,192.496007 L1075.24501,133.441504 L1132.53438,103.912965 L1189.82034,133.441504 L1189.82034,192.496007 Z M1072.02817,131.782858 L1072.02817,194.153366 L1132.53438,225.341839 L1193.04171,194.153366 L1193.04171,131.782858 L1132.53438,100.59696 L1072.02817,131.782858 Z" id="Fill-178" fill="#C9DFFF" mask="url(#mask-14)"></path>
                            <path d="M1056.47485,192.496007 L999.186614,222.019396 L941.897246,192.496007 L941.897246,133.441504 L999.186614,103.912965 L1056.47485,133.441504 L1056.47485,192.496007 Z M938.680411,131.782858 L938.680411,194.153366 L999.186614,225.341839 L1059.69168,194.153366 L1059.69168,131.782858 L999.186614,100.59696 L938.680411,131.782858 Z" id="Fill-179" fill="#C9DFFF" mask="url(#mask-14)"></path>
                            <path d="M922.378457,192.496007 L865.089089,222.019396 L807.79972,192.496007 L807.79972,133.441504 L865.089089,103.912965 L922.378457,133.441504 L922.378457,192.496007 Z M804.582886,131.782858 L804.582886,194.153366 L865.089089,225.341839 L925.595291,194.153366 L925.595291,131.782858 L865.089089,100.59696 L804.582886,131.782858 Z" id="Fill-180" fill="#C9DFFF" mask="url(#mask-14)"></path>
                            <path d="M788.280931,192.496007 L730.991563,222.019396 L673.703329,192.496007 L673.703329,133.441504 L730.991563,103.912965 L788.280931,133.441504 L788.280931,192.496007 Z M670.486494,131.782858 L670.486494,194.153366 L730.991563,225.341839 L791.497766,194.153366 L791.497766,131.782858 L730.991563,100.59696 L670.486494,131.782858 Z" id="Fill-181" fill="#D2D2D2" mask="url(#mask-14)"></path>
                            <path d="M654.183406,192.496007 L596.895171,222.019396 L539.605803,192.496007 L539.605803,133.441504 L596.895171,103.912965 L654.183406,133.441504 L654.183406,192.496007 Z M536.388969,131.782858 L536.388969,194.153366 L596.895171,225.341839 L657.40024,194.153366 L657.40024,131.782858 L596.895171,100.59696 L536.388969,131.782858 Z" id="Fill-182" fill="#C9DFFF" mask="url(#mask-14)"></path>
                            <path d="M520.087014,192.496007 L462.797646,222.019396 L405.508277,192.496007 L405.508277,133.441504 L462.797646,103.912965 L520.087014,133.441504 L520.087014,192.496007 Z M402.291443,131.782858 L402.291443,194.153366 L462.797646,225.341839 L523.303849,194.153366 L523.303849,131.782858 L462.797646,100.59696 L402.291443,131.782858 Z" id="Fill-183" fill="#C9DFFF" mask="url(#mask-14)"></path>
                            <path d="M385.989489,192.496007 L328.70012,222.019396 L271.411886,192.496007 L271.411886,133.441504 L328.70012,103.912965 L385.989489,133.441504 L385.989489,192.496007 Z M268.195051,131.782858 L268.195051,194.153366 L328.70012,225.341839 L389.206323,194.153366 L389.206323,131.782858 L328.70012,100.59696 L268.195051,131.782858 Z" id="Fill-184" fill="#C9DFFF" mask="url(#mask-14)"></path>
                            <path d="M251.891963,192.496007 L194.602594,222.019396 L137.31436,192.496007 L137.31436,133.441504 L194.602594,103.912965 L251.891963,133.441504 L251.891963,192.496007 Z M134.097526,131.782858 L134.097526,194.153366 L194.602594,225.341839 L255.108797,194.153366 L255.108797,131.782858 L194.602594,100.59696 L134.097526,131.782858 Z" id="Fill-185" fill="#C9DFFF" mask="url(#mask-14)"></path>
                            <path d="M3.21683429,133.441504 L60.5062029,103.912965 L117.794437,133.441504 L117.794437,192.496007 L60.5062029,222.019396 L3.21683429,192.496007 L3.21683429,133.441504 Z M121.011271,194.153366 L121.011271,131.782858 L60.5062029,100.59696 L0,131.782858 L0,194.153366 L60.5062029,225.341839 L121.011271,194.153366 Z" id="Fill-186" fill="#C9DFFF" mask="url(#mask-14)"></path>
                        </g>
                    </g>
                    <rect id="Rectangle" fill="url(#linearGradient-15)" x="0" y="665" width="1528" height="596"></rect>
                </g>
            </g>
        </g>
    </g>
</svg>