<?xml version="1.0" encoding="UTF-8"?>
<svg width="256px" height="254px" viewBox="0 0 256 254" version="1.1" xmlns="http://www.w3.org/2000/svg" xmlns:xlink="http://www.w3.org/1999/xlink">
    <!-- Generator: Sketch 52.5 (67469) - http://www.bohemiancoding.com/sketch -->
    <title>project-management</title>
    <desc>Created with Sketch.</desc>
    <g id="Page-1" stroke="none" stroke-width="1" fill="none" fill-rule="evenodd">
        <g id="project-management">
            <path d="M106,241 C106,248.179199 111.908203,254 119.2,254 L136.8,254 C144.089648,254 150,248.179199 150,241 L150,215 L106,215 L106,241 Z" id="Path" fill="#EBEBEB"></path>
            <path d="M85.6593371,167.31073 C81.8277718,164.84552 78.2144197,162.051331 74.8642066,158.964478 C72.0039037,169.946839 61.1937982,176.91095 49.9943318,174.988342 C38.7927261,173.065735 30.9327763,162.899414 31.9061774,151.592346 C32.8795791,140.285279 42.3632913,131.60791 53.7296268,131.625 C54.3992414,131.625 55.0431838,131.763855 55.6828478,131.821533 C51.5303811,122.073913 49.3888978,111.591431 49.391037,101 L43.8137669,101 L40.7865948,115.378967 C40.4849475,116.812378 39.4858736,118.000122 38.1252508,118.542725 C36.7624887,119.087464 35.2200218,118.914428 34.0134317,118.083435 L21.9068834,109.75 L8.76275337,122.875 L17.0869413,134.961792 C17.9191461,136.168762 18.0924328,137.708984 17.5468999,139.067627 C17.0035068,140.428406 15.8140315,141.426025 14.3806707,141.725098 L0,144.75 L0,162.25 L14.3977854,165.272766 C15.8311462,165.573975 17.0206215,166.571594 17.5661544,167.930237 C18.1095475,169.28888 17.9362608,170.831238 17.1040561,172.036072 L8.76275337,184.125 L21.9068834,197.25 L34.0134317,188.935791 C35.2200218,188.104798 36.764628,187.929626 38.1273905,188.474365 C39.4901526,189.016968 40.4892264,190.206848 40.7908738,191.640259 L43.8137669,206 L61.3392736,206 L64.3621666,191.618896 C64.663814,190.18335 65.6628878,188.995605 67.0256499,188.453003 C68.3884125,187.908264 69.9330186,188.081299 71.1396087,188.914428 L83.246157,197.25 L97,183.516174 C95.5580824,176.810547 91.4697957,170.967956 85.6593371,167.31073 Z" id="Path" fill="#C9DFFF"></path>
            <path d="M206.999988,101.200303 C206.995702,63.2267667 180.10891,30.5985294 142.914834,23.4313602 C105.72076,16.2641909 68.6852582,36.571171 54.6407827,71.8376822 C40.5963066,107.104194 53.4921957,147.402333 85.3804843,167.889781 C92.6877258,172.431567 97.1770724,180.400101 97.284217,189.01961 L97.284217,206.800034 C97.284217,214.089663 103.177154,220 110.450109,220 L145.559156,220 C152.829969,220 158.725049,214.089663 158.725049,206.800034 L158.725049,189.384844 C158.836479,180.561233 163.415826,172.401488 170.881641,167.7265 C193.411947,153.142944 207.014987,128.08793 206.999988,101.200303 Z" id="Path" fill="#D0D0D0"></path>
            <path d="M234.866414,54.2104633 L248.688573,43.8442241 L232.86146,22.7403735 L219.0393,33.1066127 C216.195013,35.2382496 212.346103,35.4464759 209.287153,33.6346917 C206.228203,31.8229076 204.562417,28.3474595 205.062582,24.8290777 L207.503303,7.73090117 L181.389531,4 L178.948811,21.0960294 C178.448646,24.6187043 175.874835,27.4909406 172.429491,28.3732189 C168.984148,29.2576449 165.345608,27.9782328 163.211856,25.1317571 L152.84792,11.3093896 L131.746532,27.1367407 L142.108322,40.9591081 C144.239927,43.8055844 144.44815,47.6524057 142.636393,50.7114013 C140.824636,53.7703969 137.34924,55.4362079 133.830911,54.9360354 L116.732992,52.4952789 L113,78.6094422 L130.102212,81.0501987 C133.622688,81.5525183 136.494881,84.1263681 137.377147,87.5717632 C138.259412,91.0171582 136.98002,94.6557533 134.133586,96.7895367 L120.31572,107.155776 L136.142833,128.257479 L149.9607,117.895534 C152.804986,115.76175 156.656043,115.551377 159.71714,117.363161 C162.77609,119.174945 164.444022,122.65254 163.941711,126.173069 L161.479524,143.266952 L187.593296,147 L190.055482,129.89753 C190.557794,126.377002 193.131605,123.506913 196.576948,122.624634 C200.022292,121.740209 203.660832,123.021767 205.792437,125.866096 L216.160667,139.68417 L237.262054,123.856819 L226.891678,110.038745 C224.757926,107.194416 224.547556,103.343301 226.359313,100.282159 C228.17107,97.223163 231.648613,95.5552049 235.169089,96.059671 L252.267008,98.5025745 L256,72.3884107 L238.902081,69.9455077 C235.383752,69.4410416 232.513706,66.8693388 231.629293,63.4239432 C230.747028,59.9806953 232.024273,56.3442467 234.866414,54.2104633 Z M184.502146,106.27135 C167.505118,106.27135 153.728038,92.4940628 153.728038,75.4967797 C153.728038,58.5016436 167.505118,44.7222094 184.502146,44.7222094 C201.499175,44.7222094 215.276255,58.5016436 215.276255,75.4967797 C215.276255,92.4940628 201.499175,106.27135 184.502146,106.27135 Z" id="Shape" fill="#024F69" fill-rule="nonzero"></path>
            <polygon id="Path" fill="#9E9E9E" points="106 228 150 228 150 237 106 237"></polygon>
            <g id="Group" transform="translate(1.000000, 0.000000)" fill="#787878">
                <path d="M215.229691,162.01259 L237.130144,162.01259 C239.549032,162.01259 241.510234,163.968975 241.510234,166.386691 C241.510234,168.802271 239.549032,170.760791 237.130144,170.760791 L215.229691,170.760791 C212.810803,170.760791 210.849601,168.802271 210.849601,166.386691 C210.849601,163.968975 212.810803,162.01259 215.229691,162.01259 Z" id="Path"></path>
                <path d="M206.46951,188.25933 C208.017941,186.403327 210.779023,186.151304 212.637567,187.697617 L232.189709,203.96594 C234.048253,205.512253 234.300622,208.269559 232.752192,210.125562 C231.201623,211.981565 228.44054,212.233588 226.581996,210.687275 L207.029854,194.418952 C205.171309,192.872639 204.92108,190.115333 206.46951,188.25933 Z" id="Path"></path>
                <path d="M188.949148,197.005396 C191.368036,197.005396 193.329239,198.961781 193.329239,201.379496 L193.329239,223.25 C193.329239,225.66558 191.368036,227.624101 188.949148,227.624101 C186.53026,227.624101 184.569058,225.66558 184.569058,223.25 L184.569058,201.379496 C184.569058,198.961781 186.53026,197.005396 188.949148,197.005396 Z" id="Path"></path>
                <path d="M3.79408257,73.5950986 L30.3355486,66.974146 C32.6838586,66.3889388 35.0599723,67.8135118 35.6459808,70.1564748 C36.2319887,72.4994378 34.8054649,74.8723022 32.457155,75.4575087 L5.9156889,82.0784625 C3.56737839,82.6636691 1.19126471,81.2390961 0.605256783,78.8961331 C0.0192483077,76.5531701 1.44577206,74.1803058 3.79408257,73.5950986 Z" id="Path"></path>
                <path d="M9.36329865,26.4176033 C10.7684355,24.4526752 13.503853,23.9998875 15.4714717,25.4031028 L39.0016261,42.1882867 C40.9713835,43.5915015 41.4269299,46.3231788 40.0217936,48.2881069 C38.6166572,50.2530349 35.8812393,50.7079589 33.9136205,49.3026079 L10.3834666,32.5174234 C8.41370927,31.1142086 7.95816233,28.3825313 9.36329865,26.4176033 Z" id="Path"></path>
                <path d="M48.591629,0.166592 C50.9356618,-0.431429583 53.3203303,0.980328374 53.9191708,3.32115571 L60.7074553,29.8370051 C61.3062958,32.1778325 59.8926046,34.5613762 57.5485718,35.1593978 C55.204539,35.7574193 52.8198705,34.3435252 52.22103,32.0048335 L45.4327455,5.48898354 C44.833905,3.1481562 46.2475962,0.764613583 48.591629,0.166592 Z" id="Path"></path>
            </g>
        </g>
    </g>
</svg>