<?xml version="1.0" encoding="UTF-8"?>
<svg width="144px" height="230px" viewBox="0 0 144 230" version="1.1" xmlns="http://www.w3.org/2000/svg" xmlns:xlink="http://www.w3.org/1999/xlink">
    <!-- Generator: Sketch 52.5 (67469) - http://www.bohemiancoding.com/sketch -->
    <title>Group 2</title>
    <desc>Created with Sketch.</desc>
    <g id="Page-1" stroke="none" stroke-width="1" fill="none" fill-rule="evenodd">
        <g id="Group-2">
            <rect id="Rectangle" stroke="#B0B6BB" fill="#D8D8D8" x="16.5" y="0.5" width="110" height="13"></rect>
            <path d="M33.1219512,2 L8,2 C4.6862915,2 2,4.6862915 2,8 L2,222 C2,225.313708 4.6862915,228 8,228 L136,228 C139.313708,228 142,225.313708 142,222 L142,8 C142,4.6862915 139.313708,2 136,2 L112.04878,2 L112.04878,5.3877551 C112.04878,8.7014636 109.362489,11.3877551 106.04878,11.3877551 L39.1219512,11.3877551 C35.8082427,11.3877551 33.1219512,8.7014636 33.1219512,5.3877551 L33.1219512,2 Z" id="Combined-Shape" stroke="#B0B6BB" stroke-width="4" fill="#024F69"></path>
            <g id="Group-3" transform="translate(28.000000, 107.000000)" fill="#FFFFFF">
                <path d="M84.999849,86 L45.000151,86 C42.788015,86 41,84.2079746 41,82 C41,79.7920254 42.788015,78 45.000151,78 L84.999849,78 C87.211985,78 89,79.7920254 89,82 C89,84.2079746 87.2115319,86 84.999849,86" id="Path"></path>
                <path d="M11.9998867,86 L4.00011328,86 C1.78799807,86 0,84.2079746 0,82 C0,79.7920254 1.78799807,78 4.00011328,78 L11.9998867,78 C14.2120019,78 16,79.7920254 16,82 C16,84.2079746 14.2120019,86 11.9998867,86" id="Path"></path>
                <path d="M28.0002266,85 C26.916341,85 25.9162843,84.5572654 25.1600113,83.8327491 C24.4359105,83.0681086 24,82.0216865 24,80.9748084 C24,79.9283862 24.4359105,78.881964 25.1600113,78.1168676 C26.639932,76.6277108 29.360068,76.6277108 30.8399887,78.1168676 C31.5600113,78.8815081 32,79.9279302 32,80.9748084 C32,81.25659 31.9601246,81.4982474 31.9161711,81.7800291 C31.8803738,82.0216865 31.8001699,82.2628879 31.6800906,82.5045453 C31.5962617,82.7462027 31.4802605,82.9874042 31.3203059,83.2290616 C31.1603512,83.4301388 31.0003965,83.6316719 30.8404418,83.8327491 C30.0800906,84.5572654 29.080034,85 28.0002266,85" id="Path"></path>
                <path d="M80.9997734,67 C80.4795809,67 79.9598414,66.8797429 79.4799773,66.679617 C79.0001133,66.4794911 78.5601246,66.1990425 78.1600113,65.8382713 C77.4359105,65.0772482 77,64.075711 77,62.9938511 C77,62.4728884 77.1200793,61.9523795 77.3199094,61.471805 C77.5197395,60.9508423 77.7997734,60.5505904 78.1600113,60.1498848 C79.1201926,59.2286702 80.480034,58.8279645 81.7560464,59.0684787 C82.0401586,59.1084131 82.276239,59.1887358 82.5200227,59.3089928 C82.7561031,59.3893155 82.9998867,59.5091188 83.2001699,59.6693103 C83.4362504,59.8295018 83.6401586,59.9896933 83.8399887,60.1498848 C84.1997734,60.5505904 84.4798074,60.9512961 84.6800906,61.471805 C84.8799207,61.9523795 85,62.4733422 85,62.9938511 C85,64.0752572 84.5600113,65.0767944 83.8399887,65.8382713 C83.6401586,65.9984628 83.4357972,66.1586543 83.2001699,66.3188458 C83.0003398,66.4790373 82.7561031,66.5992944 82.5200227,66.6791632 C82.276239,66.7994203 82.0401586,66.8792891 81.7560464,66.9196774 C81.519966,66.9596118 81.239932,67 80.9997734,67" id="Path"></path>
                <path d="M83.9410142,46 L23.0589858,46 C20.8143133,46 19,44.2079746 19,42 C19,39.7920254 20.8143133,38 23.0589858,38 L83.9410142,38 C86.1856867,38 88,39.7920254 88,42 C87.9995402,44.2079746 86.1852269,46 83.9410142,46" id="Path"></path>
                <path d="M65.9410142,67 L5.05898581,67 C2.81431332,67 1,65.2079746 1,63 C1,60.7920254 2.81431332,59 5.05898581,59 L65.9410142,59 C68.1856867,59 70,60.7920254 70,63 C70,65.2079746 68.1856867,67 65.9410142,67" id="Path"></path>
                <path d="M77.5880989,26 L26.4119011,26 C24.525075,26 23,24.655981 23,23 C23,21.344019 24.525075,20 26.4119011,20 L77.5880989,20 C79.474925,20 81,21.344019 81,23 C81,24.655981 79.4745385,26 77.5880989,26" id="Path"></path>
                <path d="M59.5880989,6 L8.41190111,6 C6.52507497,6 5,4.65598097 5,3 C5,1.34401903 6.52507497,0 8.41190111,0 L59.5880989,0 C61.474925,0 63,1.34401903 63,3 C63,4.65598097 61.4745385,6 59.5880989,6" id="Path"></path>
                <path d="M77.5,6 C77.2866772,6 77.0448057,5.97010762 76.8350515,5.93987556 C76.5900079,5.90998318 76.3798573,5.84985875 76.1701031,5.75984193 C75.9599524,5.69971749 75.7501983,5.61004036 75.536479,5.49013117 C75.3647898,5.37022198 75.1899286,5.25031279 75.0150674,5.1304036 C74.3814433,4.56075002 74,3.78117043 74,3.00125116 C74,2.22167157 74.3814433,1.44209198 75.0150674,0.872098718 L75.536479,0.512371144 C75.7501983,0.392461953 75.9599524,0.302445138 76.1701031,0.242660385 C76.3802538,0.15264357 76.5900079,0.0928588175 76.8350515,0.0626267551 C77.9551943,-0.147299251 79.1768438,0.182535946 79.9853291,0.872098718 C80.1252974,1.02190029 80.2652657,1.17204154 80.4052339,1.35173548 C80.5452022,1.50153705 80.646709,1.68157068 80.7200634,1.86160431 C80.8251388,2.04163794 80.8949247,2.22133189 80.9266455,2.43125789 C80.9651071,2.61129152 81,2.82121753 81,3.00091147 C81,3.18060542 80.9651071,3.39087111 80.9266455,3.60079711 C80.8953212,3.78083074 80.8251388,3.96052469 80.7200634,4.14055832 C80.646709,4.32059195 80.5452022,4.50028589 80.4052339,4.68031952 C80.2652657,4.83012109 80.1252974,4.98026234 79.9853291,5.13006391 C79.8104679,5.2499731 79.6316416,5.36988229 79.4603489,5.48979149 C79.2501983,5.60970068 79.0368755,5.69971749 78.8302934,5.75950225 C78.6169707,5.84951906 78.4103886,5.90930381 78.1617764,5.93953588 C77.9547978,5.96976794 77.7097542,6 77.5,6" id="Path"></path>
                <path d="M12.5001982,26 C11.5902577,26 10.6767488,25.6695012 10.0150099,25.128654 C9.70019824,24.8281077 9.45516851,24.4976089 9.2799207,24.1371576 C9.1046729,23.7767063 9,23.3859621 9,22.9955583 C9,22.6048141 9.10506939,22.2144102 9.2799207,21.8539589 C9.45477202,21.4935076 9.69980176,21.1630088 10.0150099,20.8624625 C10.8198811,20.1715124 12.0450297,19.8709661 13.1615406,20.0513619 C13.4101388,20.0813144 13.6167091,20.1415599 13.8300198,20.2317578 C14.0365902,20.2920032 14.2499009,20.3818607 14.4251487,20.5020112 C14.6317191,20.6221616 14.8101388,20.7423121 14.9500991,20.8624625 C15.3001982,21.1630088 15.545228,21.4935076 15.7200793,21.8539589 C15.8949306,22.2144102 16,22.6051544 16,22.9955583 C16,23.3863025 15.8949306,23.7767063 15.7200793,24.1371576 C15.545228,24.4976089 15.3001982,24.8281077 14.9500991,25.128654 C14.8101388,25.2488045 14.6317191,25.3689549 14.4251487,25.4891054 C14.2502974,25.6092558 14.0365902,25.6994537 13.8300198,25.7593588 C13.6167091,25.8495567 13.4101388,25.9094617 13.1615406,25.9397546 C12.9549703,25.9700475 12.7099405,26 12.5001982,26" id="Path"></path>
            </g>
            <polygon id="Path" fill="#C9DFFF" points="36 88 104 88 104 44 36 44"></polygon>
        </g>
    </g>
</svg>