<?xml version="1.0" encoding="UTF-8"?>
<svg width="184px" height="230px" viewBox="0 0 184 230" version="1.1" xmlns="http://www.w3.org/2000/svg" xmlns:xlink="http://www.w3.org/1999/xlink">
    <!-- Generator: Sketch 52.5 (67469) - http://www.bohemiancoding.com/sketch -->
    <title>Group 2 Copy</title>
    <desc>Created with Sketch.</desc>
    <g id="Page-1" stroke="none" stroke-width="1" fill="none" fill-rule="evenodd">
        <g id="Group-2-Copy">
            <rect id="Rectangle" stroke="#B0B6BB" stroke-width="2" fill="#D8D8D8" x="45" y="1" width="124" height="10"></rect>
            <path d="M53.5,1.5 L8,1.5 C4.41014913,1.5 1.5,4.41014913 1.5,8 L1.5,222 C1.5,225.589851 4.41014913,228.5 8,228.5 L176,228.5 C179.589851,228.5 182.5,225.589851 182.5,222 L182.5,8 C182.5,4.41014913 179.589851,1.5 176,1.5 L135.239837,1.5 L135.239837,8.60204082 C135.239837,10.5350374 133.672834,12.1020408 131.739837,12.1020408 L57,12.1020408 C55.0670034,12.1020408 53.5,10.5350374 53.5,8.60204082 L53.5,1.5 Z" id="Combined-Shape" stroke="#B0B6BB" stroke-width="3" fill="#024F69"></path>
            <g id="Group-3" transform="translate(44.000000, 97.000000)" fill="#FFFFFF">
                <path d="M91.666503,100 L48.333497,100 C45.9370162,100 44,97.9839715 44,95.5 C44,93.0160285 45.9370162,91 48.333497,91 L91.666503,91 C94.0629838,91 96,93.0160285 96,95.5 C96,97.9839715 94.0624929,100 91.666503,100" id="Path"></path>
                <path d="M12.7498796,100 L4.25012036,100 C1.89974795,100 0,97.9839715 0,95.5 C0,93.0160285 1.89974795,91 4.25012036,91 L12.7498796,91 C15.100252,91 17,93.0160285 17,95.5 C17,97.9839715 15.100252,100 12.7498796,100" id="Path"></path>
                <path d="M31.0002266,99 C29.916341,99 28.9162843,98.5019236 28.1600113,97.6868428 C27.4359105,96.8266222 27,95.6493973 27,94.4716594 C27,93.2944345 27.4359105,92.1172095 28.1600113,91.256476 C29.639932,89.5811747 32.360068,89.5811747 33.8399887,91.256476 C34.5600113,92.1166966 35,93.2939215 35,94.4716594 C35,94.7886638 34.9601246,95.0605283 34.9161711,95.3775327 C34.8803738,95.6493973 34.8001699,95.9207489 34.6800906,96.1926135 C34.5962617,96.4644781 34.4802605,96.7358297 34.3203059,97.0076943 C34.1603512,97.2339061 34.0003965,97.4606309 33.8404418,97.6868428 C33.0800906,98.5019236 32.080034,99 31.0002266,99" id="Path"></path>
                <path d="M87.9997734,77 C87.4795809,77 86.9598414,76.8647108 86.4799773,76.6395691 C86.0001133,76.4144275 85.5601246,76.0989228 85.1600113,75.6930552 C84.4359105,74.8369042 84,73.7101749 84,72.4930825 C84,71.9069994 84.1200793,71.3214269 84.3199094,70.7807806 C84.5197395,70.1946975 84.7997734,69.7444142 85.1600113,69.2936204 C86.1201926,68.257254 87.480034,67.8064601 88.7560464,68.0770385 C89.0401586,68.1219648 89.276239,68.2123277 89.5200227,68.3476169 C89.7561031,68.4379799 89.9998867,68.5727586 90.2001699,68.752974 C90.4362504,68.9331895 90.6401586,69.1134049 90.8399887,69.2936204 C91.1997734,69.7444142 91.4798074,70.1952081 91.6800906,70.7807806 C91.8799207,71.3214269 92,71.90751 92,72.4930825 C92,73.7096643 91.5600113,74.8363937 90.8399887,75.6930552 C90.6401586,75.8732706 90.4357972,76.0534861 90.2001699,76.2337015 C90.0003398,76.4139169 89.7561031,76.5492061 89.5200227,76.6390586 C89.276239,76.7743478 89.0401586,76.8642003 88.7560464,76.909637 C88.519966,76.9545632 88.239932,77 87.9997734,77" id="Path"></path>
                <path d="M90.6468848,53 L25.3531152,53 C22.9457853,53 21,50.9839715 21,48.5 C21,46.0160285 22.9457853,44 25.3531152,44 L90.6468848,44 C93.0542147,44 95,46.0160285 95,48.5 C94.9995069,50.9839715 93.0537216,53 90.6468848,53" id="Path"></path>
                <path d="M70.6468848,77 L5.35311521,77 C2.9457853,77 1,74.9839715 1,72.5 C1,70.0160285 2.9457853,68 5.35311521,68 L70.6468848,68 C73.0542147,68 75,70.0160285 75,72.5 C75,74.9839715 73.0542147,77 70.6468848,77" id="Path"></path>
                <path d="M83.3527954,31 L28.6472046,31 C26.6302525,31 25,29.2079746 25,27 C25,24.7920254 26.6302525,23 28.6472046,23 L83.3527954,23 C85.3697475,23 87,24.7920254 87,27 C87,29.2079746 85.3693343,31 83.3527954,31" id="Path"></path>
                <path d="M64.3527954,8 L9.64720464,8 C7.63025255,8 6,6.20797463 6,4 C6,1.79202537 7.63025255,0 9.64720464,0 L64.3527954,0 C66.3697475,0 68,1.79202537 68,4 C68,6.20797463 66.3693343,8 64.3527954,8" id="Path"></path>
                <path d="M84,8 C83.7562026,8 83.479778,7.9601435 83.2400589,7.91983408 C82.9600091,7.87997758 82.7198369,7.79981166 82.4801178,7.67978924 C82.2399456,7.59962332 82.0002266,7.48005382 81.755976,7.3201749 C81.5597598,7.16029597 81.3599184,7.00041705 81.160077,6.84053813 C80.4359352,6.08100002 80,5.04156057 80,4.00166821 C80,2.96222876 80.4359352,1.92278931 81.160077,1.16279829 L81.755976,0.683161526 C82.0002266,0.523282604 82.2399456,0.403260184 82.4801178,0.32354718 C82.72029,0.20352476 82.9600091,0.123811757 83.2400589,0.0835023401 C84.520222,-0.196399002 85.9163929,0.243381262 86.8403761,1.16279829 C87.0003399,1.36253371 87.1603036,1.56272205 87.3202674,1.80231398 C87.4802311,2.0020494 87.5962388,2.24209424 87.6800725,2.48213908 C87.8001586,2.72218392 87.8799139,2.96177585 87.9161663,3.24167719 C87.9601224,3.48172203 88,3.76162337 88,4.0012153 C88,4.24080722 87.9601224,4.52116148 87.9161663,4.80106282 C87.8803671,5.04110766 87.8001586,5.28069959 87.6800725,5.52074443 C87.5962388,5.76078927 87.4802311,6.00038119 87.3202674,6.24042603 C87.1603036,6.44016145 87.0003399,6.64034979 86.8403761,6.84008522 C86.6405347,6.99996414 86.4361618,7.15984306 86.2403988,7.31972198 C86.0002266,7.4796009 85.7564291,7.59962332 85.5203353,7.67933633 C85.2765379,7.79935875 85.0404441,7.87907175 84.7563158,7.91938117 C84.5197689,7.95969058 84.239719,8 84,8" id="Path"></path>
                <path d="M14.0002266,31 C12.9602945,31 11.9162843,30.5593349 11.1600113,29.8382054 C10.8002266,29.437477 10.5201926,28.9968119 10.3199094,28.5162102 C10.1196262,28.0356084 10,27.5146161 10,26.9940777 C10,26.4730854 10.1200793,25.952547 10.3199094,25.4719452 C10.5197395,24.9913434 10.7997734,24.5506784 11.1600113,24.14995 C12.0798641,23.2286832 13.480034,22.8279548 14.7560464,23.0684826 C15.0401586,23.1084193 15.276239,23.1887465 15.5200227,23.3090104 C15.7561031,23.3893376 15.9998867,23.5091476 16.2001699,23.6693482 C16.4362504,23.8295488 16.6401586,23.9897494 16.8001133,24.14995 C17.2002266,24.5506784 17.4802605,24.9913434 17.6800906,25.4719452 C17.8799207,25.952547 18,26.4735392 18,26.9940777 C18,27.51507 17.8799207,28.0356084 17.6800906,28.5162102 C17.4802605,28.9968119 17.2002266,29.437477 16.8001133,29.8382054 C16.6401586,29.998406 16.4362504,30.1586066 16.2001699,30.3188071 C16.0003398,30.4790077 15.7561031,30.5992716 15.5200227,30.679145 C15.276239,30.7994089 15.0401586,30.8792823 14.7560464,30.9196728 C14.519966,30.9600633 14.239932,31 14.0002266,31" id="Path"></path>
            </g>
            <polygon id="Path" fill="#C9DFFF" points="35 76 149 76 149 36 35 36"></polygon>
        </g>
    </g>
</svg>