<?xml version="1.0" encoding="UTF-8"?>
<svg width="86px" height="54px" viewBox="0 0 86 54" version="1.1" xmlns="http://www.w3.org/2000/svg" xmlns:xlink="http://www.w3.org/1999/xlink">
    <!-- Generator: Sketch 42 (36781) - http://www.bohemiancoding.com/sketch -->
    <title>cH-mark</title>
    <desc>Created with Sketch.</desc>
    <defs></defs>
    <g id="Page-1" stroke="none" stroke-width="1" fill="none" fill-rule="evenodd">
        <g id="cH-mark" fill-rule="nonzero" fill="#006D92">
            <path d="M28.324,39.29 L27.012,39.29 C23.978,46.26 20.288,49.048 15.778,49.048 C12.662,49.048 10.858,46.506 10.858,41.504 C10.858,36.256 12.334,30.598 14.548,25.842 C17.008,20.594 19.632,18.462 21.764,18.462 C23.322,18.462 24.06,19.446 24.06,21.168 C24.06,22.398 23.568,23.71 23.076,24.94 C22.666,26.17 22.83,27.236 23.568,28.056 C24.224,28.794 25.372,29.122 26.602,29.122 C29.062,29.122 32.014,27.072 32.014,23.382 C32.014,18.872 28.652,15.838 22.502,15.838 C18.074,15.838 14.466,17.15 10.776,19.774 C4.052,24.694 0.198,33.386 0.198,41.012 C0.198,48.884 3.806,53.148 11.678,53.148 C18.73,53.148 25.044,49.376 28.734,43.39 L28.324,39.29 Z M40.284,36.092 C40.284,42.078 40.038,45.44 39.874,47.326 C39.792,49.212 38.48,49.54 34.134,49.786 L34.134,52.246 C37.824,52.246 41.596,52 45.122,52 C49.468,52 54.88,52.246 57.832,52.246 L57.832,49.786 C53.896,49.622 52.666,49.294 52.502,47.408 C52.42,45.358 52.256,41.668 52.256,36.174 L52.256,26.908 C53.978,26.826 56.438,26.826 59.39,26.826 C62.26,26.826 65.13,26.826 67.508,26.908 L67.508,35.928 C67.508,42.16 67.344,45.604 67.262,47.326 C67.18,49.13 65.95,49.54 62.096,49.786 L62.096,52.246 C64.064,52.246 68.738,52 73.084,52 C77.84,52 82.76,52.246 85.138,52.246 L85.302,49.786 C80.792,49.458 79.89,49.212 79.808,47.818 C79.644,45.768 79.48,40.684 79.48,34.862 L79.48,16.576 C79.48,12.23 79.644,8.048 79.808,5.506 C79.89,3.702 80.874,3.374 85.056,3.21 L85.056,0.75 C83.498,0.832 77.184,0.996 73.494,0.996 C71.444,0.996 64.966,0.832 62.424,0.75 L62.342,3.21 C65.95,3.374 67.262,3.702 67.344,5.424 C67.426,7.638 67.508,10.18 67.508,15.018 L67.508,23.792 C64.802,23.874 62.342,23.874 59.554,23.874 C56.684,23.874 53.978,23.874 52.256,23.792 L52.256,16.084 C52.256,12.148 52.338,8.212 52.502,5.834 C52.666,3.702 53.65,3.292 57.504,3.21 L57.586,0.75 L45.614,0.996 C42.826,0.996 37.086,0.75 34.626,0.75 L34.544,3.21 C38.972,3.292 40.12,3.702 40.202,5.752 C40.284,8.212 40.284,11.492 40.284,17.724 L40.284,36.092 L40.284,36.092 Z" id="Shape"></path>
        </g>
    </g>
</svg>