<?xml version="1.0" encoding="UTF-8"?>
<svg width="829px" height="212px" viewBox="0 0 829 212" version="1.1" xmlns="http://www.w3.org/2000/svg" xmlns:xlink="http://www.w3.org/1999/xlink">
    <!-- Generator: Sketch 42 (36781) - http://www.bohemiancoding.com/sketch -->
    <title>signature2</title>
    <desc>Created with Sketch.</desc>
    <defs></defs>
    <g id="Page-1" stroke="none" stroke-width="1" fill="none" fill-rule="evenodd">
        <g id="Artboard" transform="translate(-21.000000, -14.000000)" fill="#000000">
            <path d="M704.564424,25.1888288 C640.278015,56.2673283 585.458325,107.291834 573.372965,147.297758 C570.215956,157.748469 569.776313,158.032097 559.327276,156.361692 C544.556229,154.000436 535.547299,162.621174 536.872843,177.848818 L537.79734,188.471704 L516.861592,189.319819 C505.347046,189.786383 495.925844,189.22912 495.925844,188.08139 C495.925844,186.933813 497.52111,181.584553 499.470982,176.194247 C502.716411,167.221781 502.461605,165.975511 496.454678,161.445926 L489.893236,156.498202 L518.176987,115.339629 C553.306509,64.2187361 573.893495,31.3239447 573.893495,26.3136538 C573.893495,24.0799914 570.659598,22.4810704 566.142139,22.4810704 C557.311742,22.4810704 533.465796,33.2023426 533.465796,37.172666 C533.465796,41.3134733 538.076596,40.2941055 549.30635,33.6704432 C570.039115,21.4417179 566.868267,30.5202566 534.501011,76.0603752 C522.019987,93.6209895 505.310909,118.685049 497.369795,131.758508 L482.931364,155.528181 L461.273641,153.796132 C432.390474,151.486528 420.845942,149.370006 420.845942,146.384462 C420.845942,141.475939 471.158783,66.9381778 482.55077,54.9695597 C490.913382,46.1837183 493.332884,41.8286146 491.094683,39.591109 C486.374702,34.8725932 472.873532,50.3097678 445.464917,91.7641135 C401.837153,157.74893 380.244476,205.412489 389.698279,214.863202 C393.240802,218.404779 394.543279,218.140675 399.26649,212.923006 C403.674,208.054452 403.980628,206.417867 400.848377,204.482744 C396.19129,201.605424 397.89466,193.380842 407.77196,171.053749 C418.550229,146.689765 425.049545,149.611666 435.286833,183.424058 C438.772767,194.937488 442.902866,205.147001 444.464762,206.111949 C448.289463,208.475204 462.614254,194.45217 473.54307,177.646205 C478.447428,170.104481 484.051464,163.934008 485.996415,163.934008 C491.732236,163.934008 492.884475,171.291719 488.478195,179.782096 C486.221542,184.13059 484.375161,189.429581 484.375161,191.557633 C484.375161,197.067077 502.124837,199.682445 522.923417,197.237715 C566.38572,192.129038 570.438777,192.344872 582.640699,200.417263 C591.28918,206.138698 598.91121,208.338079 613.602294,209.351144 C637.85513,211.023701 657.267887,204.291507 682.125061,185.588235 C694.913328,175.965962 702.03159,172.584108 709.558126,172.554899 C715.148168,172.533224 722.64564,171.732149 726.219072,170.774887 C731.442514,169.375505 732.716389,170.219162 732.716389,175.077877 C732.716389,184.894923 745.089924,190.963783 761.212811,189.054947 L775.089654,187.411906 L780.161781,198.904583 C783.24267,205.885355 789.859932,213.46013 797.017253,218.19863 C807.03495,224.831209 811.862112,226 829.234116,226 C854.74176,226 857.579992,220.732677 833.122788,218.783103 C809.239935,216.879186 796.781054,209.395879 787.310029,191.265704 C781.712913,180.551503 778.42658,177.178873 774.315395,177.93014 C745.091155,183.271099 742.962596,182.565181 744.105762,167.912018 C744.656278,160.854228 737.417917,157.039631 730.341482,160.658226 C722.276118,164.782431 708.976701,167.263441 710.054205,164.443 C710.60672,162.996577 720.15494,153.482681 731.272592,143.300686 C742.390244,133.118844 758.54081,117.311647 767.162841,108.173462 C781.122877,93.3777924 782.363229,91.0829464 778.49178,87.2126997 C772.247424,80.9702819 762.396266,85.4694284 737.508952,105.930576 C702.584566,134.643514 689.80368,151.214276 694.049879,162.276209 C696.033428,167.443763 677.278368,181.655114 653.304942,193.150097 C640.439325,199.319033 631.89003,201.416339 620.096535,201.297046 C603.243831,201.126562 584.994539,196.158547 583.588724,191.358555 C583.123707,189.770703 590.822779,183.925056 600.697926,178.367956 C612.990883,171.450366 635.954313,151.423039 673.518714,114.858461 C750.693038,39.7385338 760.762864,26.6858284 748.472521,17.7018322 C739.83096,11.3848565 729.460042,13.1533391 704.564424,25.1888288 M743.649049,27.7905152 C745.561246,33.606185 622.488665,154.872994 598.66886,170.643604 C587.677765,177.920455 577.515212,183.151652 576.085562,182.268333 C571.91133,179.689245 576.820301,158.0384 585.483083,140.820444 C606.479111,99.0893887 643.167915,65.5432533 699.218885,36.82724 C727.496176,22.3402559 740.956904,19.6025206 743.649049,27.7905152 M767.368746,97.080476 C767.368746,100.467403 707.210898,158.160459 703.679447,158.160459 C694.900411,158.160459 718.176159,131.48103 749.840353,105.248794 C762.582949,94.6923174 767.368746,92.4621907 767.368746,97.080476 M472.764967,164.655605 C472.732366,166.640383 466.999159,174.759507 460.024677,182.698156 L447.343899,197.132104 L443.846739,183.370714 C441.923163,175.802088 439.209797,168.905252 437.816899,168.044685 C430.871327,163.753532 437.151206,161.047157 454.054348,161.047157 C467.176923,161.047157 472.806486,162.132935 472.764967,164.655605 M567.354043,168.805483 C568.967454,173.721538 557.11045,184.669405 551.369554,183.564103 C545.236531,182.383475 543.428287,173.655743 548.140579,167.979504 C552.234233,163.04869 565.653903,163.625476 567.354043,168.805483 M121.984691,30.3808257 C105.450594,34.5608336 70.306478,67.8789909 48.6149548,99.9384264 C21.8115077,139.553267 14.3732392,169.120778 26.9419308,186.089541 C41.6662456,205.968675 62.6901838,213.690875 102.260662,213.754211 C122.580463,213.786801 133.122364,212.255213 147.499454,207.181125 C164.943732,201.024795 166.576673,200.897201 171.024933,205.34408 C180.781365,215.097637 189.821358,211.403869 212.318849,188.471704 C224.00101,176.563655 234.203698,166.820705 234.991182,166.820705 C235.778666,166.820705 235.598133,169.418856 234.589982,172.594407 C231.988103,180.789473 239.895694,180.120912 251.65951,171.150905 C262.327369,163.016715 273.573884,161.581668 273.573884,168.354753 C273.573884,175.161812 279.85284,176.065885 293.557301,171.232227 C308.059088,166.117248 345.999009,165.321553 350.712224,170.033459 C352.479872,171.800404 355.423286,172.320926 357.253367,171.190259 C359.614895,169.731077 359.092059,167.489882 355.452196,163.469289 C351.013008,158.565378 346.621799,157.828869 322.777544,157.988899 C307.627286,158.090667 287.219911,157.598277 277.427956,156.89482 C262.759477,155.841171 258.486367,156.60243 253.162664,161.218409 C245.284752,168.048681 244.203711,168.165361 245.292287,162.068369 C247.175727,151.51958 238.369166,156.146781 214.51553,178.238825 C197.450616,194.043562 187.19672,201.462304 182.416459,201.462304 C172.264516,201.462304 173.78474,194.637566 185.14305,189.222971 C200.226569,182.032361 246.685799,141.775093 263.704888,121.148535 C290.649409,88.4924822 307.962209,48.4757972 299.536703,38.326853 C288.564369,25.1101203 256.448844,42.0001747 221.595348,79.3172487 C190.293295,112.832177 167.015855,154.873916 166.753668,178.367956 C166.691697,183.925056 165.566369,190.165321 164.252973,192.235264 C155.939108,205.339161 81.1123349,210.332541 56.9971427,199.392669 C20.9964214,183.061107 20.1960052,156.969839 54.1028442,105.046027 C85.6143857,56.7901559 130.155837,25.0175762 143.596712,41.2078625 C148.817001,47.4960911 145.389272,57.2442674 127.563723,86.8037842 C117.280256,103.856482 112.740515,114.003428 114.574502,115.836938 C119.256193,120.517175 125.219064,113.150855 139.533029,85.0039411 C146.927717,70.4631523 155.422269,55.884239 158.409817,52.6064586 C165.342779,44.9998618 165.262662,42.6887207 158.066283,42.6887207 C154.889745,42.6887207 152.290941,41.4229274 152.290941,39.8759663 C152.290941,36.5114835 136.821861,28.114573 131.498558,28.5895914 C129.4344,28.7737571 125.15314,29.5799047 121.984691,30.3808257 M292.702156,44.0247675 C297.954508,57.7079099 270.802083,104.131809 237.796045,137.901003 C216.287945,159.906344 176.110285,191.594988 173.291275,188.776854 C170.134574,185.621287 181.344645,151.265007 191.758313,132.17926 C211.840761,95.3730233 247.843266,57.7858498 275.017681,45.2550497 C289.083514,38.7689737 290.643104,38.660442 292.702156,44.0247675" id="signature2"></path>
        </g>
    </g>
</svg>